<?xml version="1.0" encoding="UTF-8"?>
<svg id="Layer_1" xmlns="http://www.w3.org/2000/svg" version="1.1" viewBox="0 0 708.66 708.66">
  <!-- Generator: Adobe Illustrator 29.7.1, SVG Export Plug-In . SVG Version: 2.1.1 Build 8)  -->
  <defs>
    <style>
      .st0, .st1 {
        fill: #fff;
      }

      .st1, .st2 {
        fill-rule: evenodd;
      }

      .st2 {
        fill: #ef3e33;
      }
    </style>
  </defs>
  <g>
    <path class="st1" d="M449,248.6c-5.04,4.23-8.09,13.47-7.34,24.19,1.03,14.72,8.84,26.65,17.44,26.65h70.62c5.88-8.36,9.54-22.24,7.43-37.33-2.57-18.36-11.96-34.2-22.57-41.52h-39.16c10.61,7.33,20,23.16,22.57,41.52,1.98,14.17-.79,26.8-5.96,35.21-5.86-4.06-10.43-13.51-11.2-24.54-.75-10.72,2.3-19.96,7.34-24.19h-39.16ZM174.35,248.6c-5.04,4.23-8.09,13.47-7.34,24.19,1.03,14.72,8.84,26.65,17.44,26.65h70.62c5.88-8.36,9.54-22.24,7.43-37.33-2.57-18.36-11.96-34.2-22.57-41.52h-39.16c10.61,7.33,20,23.16,22.57,41.52,1.98,14.17-.79,26.8-5.96,35.21-5.86-4.06-10.43-13.51-11.2-24.54-.75-10.72,2.3-19.96,7.34-24.19h-39.16ZM289.97,187.76c-12.88,10.4-21.49,32.87-19.67,58.92,1.49,21.41,9.69,40.4,20.52,52.26h39.16c-10.83-11.86-19.03-30.85-20.52-52.26-1.82-26.05,6.8-48.53,19.67-58.92h-39.16ZM405.07,221.09c10.61,7.33,20,23.16,22.57,41.52,2.11,15.09-.86,28.47-6.73,36.83l-79.85-.31c-10.83-11.86-19.03-31.8-20.52-53.21-1.82-26.05,6.8-47.57,19.67-57.97h39.16c-12.87,10.4-21.49,31.92-19.67,57.97,1.49,21.41,9.69,40.4,20.52,52.26,5.88-8.36,10.37-20.49,8.26-35.58-2.57-18.36-11.96-34.19-22.57-41.52h39.16Z"/>
    <path class="st2" d="M212.37,403.26c-1.34,2.49-3.44,3.45-5.74,4.21-4.21-1.34-8.8,1.72-12.25.96,2.49-1.72,4.78-1.53,7.66-2.3,3.63.38,6.12-3.63,10.33-2.87ZM293.11,383.56c-1.15,1.34-2.3,3.25-3.83,3.64.19-1.34-2.87-3.64.19-4.02,1.15-.19,2.49.19,3.64.38ZM335.21,377.43l-5.74-.19c1.34-.76,4.21-.96,5.74.19ZM580.13,365c-.19.76-.38.96-1.15,1.34-1.15-.19-1.53-.38-2.49-1.15-.58-1.72.76-2.67,1.91-3.44,1.53.38,1.53,1.91,1.72,3.25ZM568.27,360.4c1.34-.58,3.06,1.72,5.17,1.15,1.53.77,1.34,2.3.96,3.45-1.91.96-4.02.38-5.55-.19-3.64-.58-7.08.19-10.71-.77-.38.96-1.15,1.53-2.1,1.91-1.72,0-2.49-1.72-2.1-3.06,0-.57,0-1.34.77-1.34,2.87,1.91,5.36-1.53,8.42-1.34l2.3-1.15c0,1.34,1.72,1.91,2.87,1.34ZM399.7,358.49c-.96,1.34-3.06.58-4.4.38.96-.19,2.87-.96,4.4-.38ZM567.32,358.49h-1.53v-.38c.38.19,1.15-.19,1.53.38ZM414.43,358.3c-1.91.38-4.78.77-5.55-1.34,1.53-2.29,4.21.19,5.55,1.34ZM440.26,355.62l-.57-.19h.57v.19ZM438.54,355.62c-2.68,2.3-5.93.77-9.38.96,1.15-2.3,3.64-.38,5.36-1.53l4.02.58ZM452.51,355.43l6.51-.96c-1.15.57-4.21,1.72-6.51.96ZM460.16,354.47l1.15-.19-1.15.19ZM486.76,354.47c-.76.96-2.87,2.11-4.02,2.87-5.93-.58-11.29-2.68-17.6-3.06-.77-.38-1.53-.57-2.49-.57,3.83-2.68,8.04,1.34,12.06.96l12.05-.19ZM602.14,348.73c-.38,1.15.96,3.83-1.34,3.83-1.53-.38-4.4,0-4.97-2.29.96-.96.19-3.25,2.29-2.87,1.53.58,3.44-.38,4.02,1.34ZM648.64,342.8c3.06,1.72,7.27,2.87,8.23,6.89-4.4.58-10.14,1.72-13.97-2.29-1.72.19-3.44-1.15-5.55-.38-1.72,0-2.68-1.53-3.25-2.68-.19-.96.96-2.49,2.11-2.68,4.02,0,8.23.76,12.44,1.15ZM632.37,341.84c.38,1.15,0,2.68-.96,3.64-4.59-.96-8.8,1.15-12.44-2.1-.77-1.91.96-3.25,2.1-4.4,4.21,0,8.42-.19,11.29,2.87ZM530.58,338.4c1.15.96,3.44.77,3.83,2.49-2.68,1.15-5.74-.57-8.61-.96-1.53-.38-3.64-.96-2.11-2.87,2.68-1.34,4.21,1.72,6.89,1.34ZM448.3,323.47c3.45-5.16,6.7,1.91,10.91.96,3.83,1.53,8.23.57,12.05.19,1.53,1.53,2.49-.96,3.83-.57,1.91,1.72,5.17.76,7.08,1.72,2.68,0,4.97-3.25,7.46-.76,1.34-.96,2.1.76,3.25.76,3.44.77,6.31-.96,9.38.58,6.5,0,14.54,0,20.67,2.68,4.97.58,12.05-1.72,15.88,3.06,2.68.58,5.74-1.53,8.8-2.49,1.34-.76,3.44.19,4.78,1.34l.77.58,20.28-.19c4.4,2.29,8.42,3.06,13.78,2.68,2.68,1.91,5.74.19,9.18.76.96.77,2.68-.96,3.45.77,3.06-1.34,4.78,2.3,7.84.96,2.3,3.83,8.61-1.15,7.84,5.17-.96,1.15-2.87,1.91-3.83.38-3.45,1.91-6.7-3.06-10.14-.77-1.91-2.29-5.36,1.15-6.7-1.91-1.15,1.15-1.72-.38-3.06.38-3.06,0-6.89.58-10.53-.96-4.78-1.15-9.76-5.55-14.92-1.53-3.06-.58-7.46-2.3-9.76.58.77,1.53,2.68.19,4.02,1.72,4.59-.96,9.76,1.91,13.97,4.59,4.78,1.15,11.1.77,16.07,1.15,2.68-.57,2.49,2.49,4.4,3.83.38.96-.96,1.34-1.34,2.1-6.12-2.1-13.2-1.53-19.52-1.91-1.53,0-3.44-.77-4.78.76.96,1.53,1.15,3.83,2.87,4.78.96-.96,2.29-2.29,3.83-.96-.19,1.15.96,2.3,0,3.25-.76.96-2.1,1.34-2.87.19l-1.34-2.68c-1.53,4.4-5.93,2.29-8.99,2.49-1.53-.76-.96-3.06-1.15-4.4l2.87-2.68c-4.02-1.53-7.84-.76-11.86-.76,1.53,2.68,8.23-.58,5.55,4.97-2.68,1.15-7.08-.57-9.57,1.34-1.53,0-2.1-.77-2.1-2.1.19-1.34,1.91-2.49,2.29-3.64,1.15.19,2.49.96,3.44-.57-3.83-2.49-8.23-2.87-12.44-2.87-.96.38-2.1.96-2.3,2.11.96,2.1,5.36.38,6.51,3.64-4.4,4.02-11.67,1.53-17.03,1.53-1.72-.96-4.4,3.25-5.93-.19-1.34-1.15.19-2.3.38-3.45.96-1.34,2.1,0,3.44,0l.96,1.53c.38-1.15,1.91-2.29,2.29-3.63,0-.58-.57-1.54-1.34-1.15-3.83,2.68-6.31-.96-9.95-.96-3.64.38-9.19-.77-12.06,1.91.77,2.49,3.83.19,5.74.19,2.1,1.15,6.7-1.54,6.5,3.06-1.72,1.72-3.83,1.53-5.93,1.53-3.06.19-5.55,2.49-8.61,1.72,3.44,4.59,10.9.57,15.69,3.06,4.21-.38,7.08.58,9.76,3.83,1.91-.76,2.49-3.44,4.78-3.83,3.44-1.34,5.17,6.32,9,2.68,3.83-.38,8.23-1.72,11.48,1.15.19.77-.38,1.72-1.15,1.72-4.02,1.34-7.84-2.68-11.29.96-3.06,1.53-6.12-.77-8.99.19-2.1,1.34-3.64-2.68-5.55,0-7.08.77-13.97.96-20.86-.96-2.49.38-4.21,4.4-7.27,2.87l-4.59-2.49c-3.63,1.53-9.38-.38-12.63,2.49l-5.55-1.15c-9.18-.38-17.61.57-25.26,0-5.55-.58-11.86,1.72-17.6,1.34-7.66.19-13.97,4.21-21.43,3.63-4.78,3.06-11.29,3.83-15.88.77-4.59.76-9.38,7.46-13.59,2.11-1.53-.96-3.06-.38-4.59,0-5.74,2.49-11.29,5.16-17.41,6.5-6.51,4.78-13.2-3.83-20.09-1.53-1.15-.38-2.68-1.15-3.83-.19,1.34.58,3.06,2.11,1.72,3.63-4.02,3.26-8.99,2.3-13.39,3.64-5.74,1.72-13.2-.19-16.46,6.89-6.7,1.91-15.69,6.32-20.86-.57-1.72-1.15-3.83-2.68-3.83-4.98-1.72,4.79-6.7,6.89-9.57,10.72-4.97,1.15-10.52-1.15-14.73,2.87-2.68-.58-5.93.38-8.04,2.87-6.31,2.29-13.39,5.74-20.47,4.02-1.72.19-2.1,1.53-3.64,2.3-8.42,3.83-16.46,7.27-25.83,8.03-2.87,1.72-5.17,4.02-8.42,4.02-1.91-1.15-1.72-3.25-2.68-4.97.57-2.11.57-4.4,2.49-6.12-2.68.38-5.74.57-8.42,1.91,3.06,1.34,2.87,4.78,3.44,7.46-.38,7.28-7.27.77-11.29,2.11-1.34,1.15-.38,3.44-2.49,4.21-5.55-1.15-9.57,5.16-14.93,2.87-1.15-1.72-2.49-3.45-4.02-4.78-.19,3.44-.96,7.84-4.21,9.37-2.87,1.53-7.27-.19-8.8,3.25-4.59-2.11-6.7,3.83-10.52,3.63-5.55,3.06-10.52,7.27-16.84,7.85-2.3,1.53-4.4,3.44-7.27,3.25-4.21-4.59-13.39,1.91-13.59-6.89.57-.96,0-1.91-.38-2.87-4.97,2.3-9.76,3.06-15.5,2.68-3.25-2.3-5.93,2.87-9.38,1.15-.57-.96-1.91-2.11-1.15-3.25.77-3.64,8.42.76,5.93-4.02-3.44-.77-7.84,2.29-9.57-2.49-4.4-5.93-3.83-15.5-10.91-18.94-1.34-2.49.96-4.78,1.53-6.89,3.64-.38,5.74-3.64,8.23-5.55,1.91,0,3.44-1.53,4.97-1.72,1.91-1.72,4.02-4.59,6.89-3.63.96-1.53,3.25-.38,4.4-1.34,3.64-.96,6.89-3.64,10.14-5.55,2.49-1.53,5.74-.19,7.27-3.25.96-1.15,2.68-2.87,4.4-3.45,4.59,1.15,8.61-1.53,13.01-2.87,1.34.38,3.44-.58,4.59-1.72,3.25-2.1,5.93-5.16,9.57-4.79,4.02-.38,7.65,4.4,11.1-.38l4.21-4.59c3.06-.96,6.51-1.15,9.38-.77,2.68-.57,4.98-2.49,7.85-1.72,2.87-1.72,6.31-5.36,10.14-4.98l5.17,4.59c3.44-.19,6.12,0,7.84,3.25.57-.38,1.53.19,1.91-.57-.96-2.1-4.02-3.44-2.87-5.74.77-1.53,1.53-3.83,3.44-4.59,2.3-.58,4.4.77,6.31,1.53,3.64-2.29,8.23-2.68,10.91-6.7,1.91.77,2.68-1.91,4.21-.57,4.4.96,7.46-5.55,12.25-3.83,2.11,0,5.17.96,6.89-1.34,8.04-1.34,15.31.57,24.11.19,1.15-1.34,2.49-.58,4.02-1.15,2.87-2.49,6.12-4.4,10.14-3.63,4.59-1.53,9.57-8.04,14.73-3.64,3.83-.38,7.08-2.49,10.91-2.68,5.55-1.34,9.95-.38,15.69-.57,2.3-.77,3.25-3.64,6.12-2.3,1.15,1.15,3.06,3.64,4.98,1.72,3.25-2.11,7.08-6.89,11.67-4.59,2.87.38,6.51-2.11,9.38.19,4.02.38,7.65-4.4,11.48-4.21,3.83-1.15,8.61.76,12.44-1.53,1.72-1.53,3.06.96,4.97.38,4.98-3.83,10.14.57,15.5-.96,2.68.38,3.25,4.4,6.5,2.11,3.25-1.53,6.89-2.11,9.76-3.83,3.44.38,7.84,3.45,11.48,0,2.1-.57,4.02,0,6.32,0,2.1,2.49,4.21-.57,6.31-.96,2.87.58,4.97-1.15,7.46-1.15,1.53-1.72,2.68-.58,4.21-1.91,4.78.96,8.8,4.02,14.16,2.87Z"/>
  </g>
  <g>
    <g>
      <path class="st1" d="M360.69,520.32v-21.83h6.12v-3.51h-6.12v-1.36c0-3.87.99-7.33,4.92-7.33,1.31,0,2.25.26,2.93.58l.63-3.56c-.89-.36-2.3-.73-3.93-.73-2.15,0-4.45.68-6.18,2.36-2.15,2.04-2.93,5.29-2.93,8.85v1.2h-3.56v3.51h3.56v21.83h4.55Z"/>
      <path class="st1" d="M381,494.41c-7.01,0-12.56,4.97-12.56,13.45,0,8.01,5.29,13.03,12.14,13.03,6.12,0,12.62-4.08,12.62-13.45,0-7.75-4.92-13.04-12.2-13.04ZM380.9,497.87c5.44,0,7.59,5.44,7.59,9.73,0,5.71-3.3,9.84-7.69,9.84s-7.7-4.19-7.7-9.74c0-4.82,2.36-9.84,7.8-9.84Z"/>
      <path class="st1" d="M399.01,520.32h4.55v-13.5c0-.79.11-1.52.21-2.15.63-3.45,2.93-5.91,6.18-5.91.63,0,1.1.05,1.57.16v-4.35c-.42-.11-.79-.16-1.31-.16-3.09,0-5.87,2.15-7.02,5.55h-.21l-.16-4.97h-4.03c.16,2.36.21,4.92.21,7.91v17.43Z"/>
      <path class="st1" d="M428.26,490.33v4.66h-3.92v3.51h3.92v13.82c0,2.98.47,5.24,1.78,6.6,1.1,1.25,2.83,1.99,4.97,1.99,1.78,0,3.19-.32,4.08-.68l-.21-3.45c-.68.21-1.41.31-2.67.31-2.56,0-3.45-1.78-3.45-4.92v-13.66h6.59v-3.51h-6.59v-6.07l-4.5,1.41Z"/>
      <path class="st1" d="M444.55,520.32h4.6v-15.29c0-.89.05-1.57.32-2.2.84-2.51,3.19-4.61,6.18-4.61,4.34,0,5.86,3.45,5.86,7.54v14.55h4.61v-15.08c0-8.74-5.44-10.83-8.85-10.83-1.72,0-3.35.52-4.71,1.31-1.41.78-2.56,1.93-3.3,3.24h-.11v-15.81h-4.6v37.17Z"/>
      <path class="st1" d="M493.96,508.5c.05-.47.16-1.21.16-2.15,0-4.66-2.2-11.93-10.47-11.93-7.38,0-11.88,6.02-11.88,13.67s4.66,12.82,12.46,12.82c4.03,0,6.81-.89,8.43-1.62l-.79-3.3c-1.73.73-3.72,1.31-7.01,1.31-4.6,0-8.58-2.56-8.69-8.79h17.8ZM476.21,505.19c.37-3.19,2.41-7.48,7.07-7.48,5.18,0,6.44,4.55,6.39,7.48h-13.45Z"/>
      <path class="st1" d="M508.04,494.99l7.64,25.34h4.19l4.08-12.04c.89-2.72,1.67-5.34,2.3-8.38h.1c.63,2.98,1.36,5.49,2.25,8.32l3.87,12.09h4.19l8.16-25.34h-4.55l-3.61,12.72c-.84,2.98-1.52,5.65-1.94,8.22h-.16c-.58-2.56-1.31-5.24-2.25-8.27l-3.93-12.67h-3.87l-4.13,12.88c-.84,2.78-1.68,5.5-2.25,8.06h-.16c-.47-2.62-1.15-5.24-1.88-8.06l-3.35-12.88h-4.71Z"/>
      <path class="st1" d="M559.65,494.41c-7.01,0-12.56,4.97-12.56,13.45,0,8.01,5.29,13.03,12.14,13.03,6.12,0,12.61-4.08,12.61-13.45,0-7.75-4.92-13.04-12.2-13.04ZM559.54,497.87c5.44,0,7.59,5.44,7.59,9.73,0,5.71-3.3,9.84-7.69,9.84s-7.7-4.19-7.7-9.74c0-4.82,2.36-9.84,7.8-9.84Z"/>
      <path class="st1" d="M577.66,520.32h4.55v-13.5c0-.79.11-1.52.21-2.15.63-3.45,2.93-5.91,6.18-5.91.63,0,1.1.05,1.57.16v-4.35c-.42-.11-.79-.16-1.31-.16-3.09,0-5.86,2.15-7.01,5.55h-.21l-.16-4.97h-4.03c.16,2.36.21,4.92.21,7.91v17.43Z"/>
      <rect class="st0" x="594.98" y="483.16" width="4.61" height="37.17"/>
      <path class="st1" d="M624.61,483.16v15.13h-.1c-1.15-2.04-3.77-3.88-7.64-3.88-6.18,0-11.41,5.18-11.36,13.61,0,7.69,4.71,12.88,10.83,12.88,4.13,0,7.22-2.15,8.64-4.97h.1l.21,4.4h4.13c-.16-1.73-.21-4.3-.21-6.54v-30.62h-4.61ZM624.61,509.7c0,.73-.05,1.36-.21,1.99-.84,3.45-3.66,5.49-6.75,5.49-4.97,0-7.48-4.24-7.48-9.37,0-5.6,2.83-9.78,7.59-9.78,3.46,0,5.97,2.41,6.65,5.34.16.58.21,1.36.21,1.94v4.4Z"/>
    </g>
    <g>
      <path class="st1" d="M412.46,456.88l3.77,11.1h4.87l-12.04-35.28h-5.5l-11.99,35.28h4.71l3.67-11.1h12.51ZM400.89,453.32l3.45-10.21c.68-2.15,1.26-4.29,1.78-6.39h.11c.52,2.04,1.05,4.14,1.83,6.44l3.46,10.15h-10.63Z"/>
      <rect class="st0" x="425.96" y="430.81" width="4.61" height="37.16"/>
      <path class="st1" d="M459.51,442.64h-4.6v15.55c0,.83-.16,1.67-.42,2.35-.84,2.04-2.98,4.19-6.07,4.19-4.19,0-5.65-3.24-5.65-8.06v-14.03h-4.6v14.81c0,8.9,4.76,11.1,8.74,11.1,4.5,0,7.17-2.67,8.38-4.71h.1l.26,4.13h4.08c-.16-1.99-.21-4.29-.21-6.91v-18.42Z"/>
      <path class="st1" d="M467.16,467.98h4.5v-15.28c0-.79.1-1.57.37-2.25.73-2.3,2.83-4.6,5.71-4.6,3.51,0,5.29,2.93,5.29,6.96v15.18h4.5v-15.65c0-.84.16-1.67.36-2.3.79-2.25,2.83-4.19,5.44-4.19,3.72,0,5.5,2.93,5.5,7.8v14.34h4.5v-14.92c0-8.79-4.97-10.99-8.32-10.99-2.41,0-4.08.63-5.6,1.78-1.05.78-2.04,1.88-2.83,3.3h-.11c-1.1-2.98-3.72-5.08-7.17-5.08-4.19,0-6.54,2.25-7.96,4.66h-.16l-.21-4.08h-4.03c.16,2.09.21,4.24.21,6.86v18.48Z"/>
      <path class="st1" d="M515.42,467.98v-25.33h-4.61v25.33h4.61ZM513.12,432.7c-1.68,0-2.88,1.26-2.88,2.88s1.15,2.83,2.77,2.83c1.83,0,2.98-1.26,2.93-2.83,0-1.62-1.1-2.88-2.83-2.88Z"/>
      <path class="st1" d="M523.06,467.98h4.61v-15.23c0-.79.1-1.57.31-2.15.79-2.56,3.14-4.71,6.18-4.71,4.34,0,5.86,3.4,5.86,7.48v14.61h4.61v-15.13c0-8.69-5.44-10.78-8.95-10.78-4.19,0-7.12,2.36-8.38,4.76h-.11l-.26-4.19h-4.08c.16,2.09.21,4.24.21,6.86v18.48Z"/>
      <path class="st1" d="M556.72,467.98v-25.33h-4.61v25.33h4.61ZM554.42,432.7c-1.67,0-2.88,1.26-2.88,2.88s1.15,2.83,2.78,2.83c1.83,0,2.98-1.26,2.93-2.83,0-1.62-1.1-2.88-2.83-2.88Z"/>
      <path class="st1" d="M585.56,442.64h-4.61v15.55c0,.83-.16,1.67-.42,2.35-.84,2.04-2.99,4.19-6.07,4.19-4.19,0-5.65-3.24-5.65-8.06v-14.03h-4.61v14.81c0,8.9,4.76,11.1,8.74,11.1,4.5,0,7.17-2.67,8.38-4.71h.1l.26,4.13h4.08c-.15-1.99-.21-4.29-.21-6.91v-18.42Z"/>
      <path class="st1" d="M593.2,467.98h4.5v-15.28c0-.79.11-1.57.37-2.25.73-2.3,2.82-4.6,5.71-4.6,3.51,0,5.29,2.93,5.29,6.96v15.18h4.5v-15.65c0-.84.16-1.67.37-2.3.79-2.25,2.83-4.19,5.44-4.19,3.72,0,5.5,2.93,5.5,7.8v14.34h4.5v-14.92c0-8.79-4.97-10.99-8.32-10.99-2.41,0-4.08.63-5.6,1.78-1.05.78-2.04,1.88-2.83,3.3h-.1c-1.1-2.98-3.72-5.08-7.17-5.08-4.19,0-6.54,2.25-7.95,4.66h-.16l-.21-4.08h-4.03c.16,2.09.21,4.24.21,6.86v18.48Z"/>
    </g>
  </g>
</svg>